####
#
# OBJ File Generated by Meshlab
#
####
# Object dove.obj
#
# Vertices: 8
# Faces: 12
#
####
mtllib ./dove.obj.mtl

vn 1.570796 1.570796 -1.570796
v 0.047500 0.034000 -0.018000 0.752941 0.752941 0.752941
vn 1.570796 -1.570796 -1.570796
v 0.047500 -0.034000 -0.018000 0.752941 0.752941 0.752941
vn -1.570796 -1.570796 -1.570796
v -0.047500 -0.034000 -0.018000 0.752941 0.752941 0.752941
vn -1.570796 1.570796 -1.570796
v -0.047500 0.034000 -0.018000 0.752941 0.752941 0.752941
vn 1.570796 1.570796 1.570796
v 0.047500 0.034000 0.018000 0.752941 0.752941 0.752941
vn 1.570796 -1.570796 1.570796
v 0.047500 -0.034000 0.018000 0.752941 0.752941 0.752941
vn -1.570796 -1.570796 1.570796
v -0.047500 -0.034000 0.018000 0.752941 0.752941 0.752941
vn -1.570796 1.570796 1.570796
v -0.047500 0.034000 0.018000 0.752941 0.752941 0.752941
# 8 vertices, 0 vertices normals


usemtl material_0
vt 0.999900 0.999900
vt 0.000100 0.999900
vt 0.000100 0.000100
f 5/1/5 8/2/8 7/3/7
vt 0.999900 0.000100
f 5/1/5 7/3/7 6/4/6

usemtl material_1
f 5/4/5 1/1/1 4/2/4
f 5/4/5 4/2/4 8/3/8

usemtl material_2
f 1/1/1 2/2/2 3/3/3
f 1/1/1 3/3/3 4/4/4

usemtl material_3
f 2/4/2 6/1/6 7/2/7
f 2/4/2 7/2/7 3/3/3

usemtl material_4
f 1/4/1 5/1/5 6/2/6
f 1/4/1 6/2/6 2/3/2

usemtl material_5
f 3/2/3 7/3/7 8/4/8
f 3/2/3 8/4/8 4/1/4
# 12 faces, 4 coords texture

# End of File